<?xml version="1.0" standalone="no"?>
<!DOCTYPE svg PUBLIC "-//W3C//DTD SVG 20010904//EN"
 "http://www.w3.org/TR/2001/REC-SVG-20010904/DTD/svg10.dtd">
<svg version="1.0" xmlns="http://www.w3.org/2000/svg"
 width="335.000000pt" height="347.000000pt" viewBox="0 0 335.000000 347.000000"
 preserveAspectRatio="xMidYMid meet">

<g transform="translate(0.000000,347.000000) scale(0.100000,-0.100000)"
fill="#000000" stroke="none">
<path d="M1704 3029 c-4 -6 -9 -208 -12 -448 -4 -400 -3 -437 12 -450 12 -10
20 -11 27 -4 18 18 28 148 34 440 3 153 8 303 11 334 2 31 2 75 -2 98 -6 37
-9 41 -35 41 -15 0 -31 -5 -35 -11z"/>
<path d="M1060 2925 c-20 -25 -6 -71 68 -225 38 -80 111 -234 161 -342 112
-242 157 -320 179 -316 13 3 17 14 15 48 -1 34 -21 87 -81 210 -44 91 -100
212 -125 270 -59 137 -154 330 -174 352 -20 22 -27 22 -43 3z"/>
<path d="M2363 2913 c-11 -16 -32 -55 -47 -88 -16 -33 -55 -115 -87 -182 -32
-67 -78 -168 -103 -225 -24 -57 -65 -147 -91 -201 -49 -102 -53 -130 -19 -135
27 -4 43 22 125 203 35 77 100 216 146 308 105 212 133 279 133 317 0 39 -31
41 -57 3z"/>
<path d="M580 2575 c-10 -12 -9 -20 4 -40 9 -14 20 -25 25 -25 5 0 34 -31 64
-69 31 -37 62 -74 70 -82 7 -8 87 -84 177 -169 90 -85 183 -175 206 -200 39
-40 45 -43 71 -34 28 10 43 41 25 53 -26 16 -323 300 -452 433 -80 81 -152
148 -161 148 -9 0 -22 -7 -29 -15z"/>
<path d="M2843 2538 c-21 -18 -40 -35 -43 -38 -6 -6 -130 -121 -200 -184 -25
-23 -63 -56 -85 -75 -22 -19 -82 -73 -134 -120 -51 -47 -106 -94 -122 -104
-29 -19 -38 -50 -19 -62 5 -3 29 -1 52 5 34 10 66 36 173 143 130 130 195 188
349 310 100 78 122 107 107 136 -16 29 -34 26 -78 -11z"/>
<path d="M404 2055 c-12 -29 -7 -32 193 -113 67 -28 124 -48 127 -44 3 3 6 0
6 -5 0 -10 -95 -250 -188 -473 -62 -150 -65 -136 30 -138 160 -5 460 -65 621
-126 172 -65 364 -185 472 -295 27 -28 58 -51 68 -51 11 0 51 30 90 66 247
229 641 380 1069 410 l97 7 -34 91 c-45 124 -156 396 -194 479 l-32 67 -57 0
c-116 0 -318 -22 -377 -42 -191 -64 -376 -162 -485 -255 -14 -12 -36 -31 -49
-42 -13 -12 -29 -21 -35 -21 -6 0 -43 26 -82 58 -141 115 -255 177 -444 242
-96 32 -125 37 -281 44 -77 3 -98 9 -215 58 -131 56 -250 98 -279 98 -9 0 -18
-7 -21 -15z m641 -226 c125 -24 217 -55 338 -115 119 -59 164 -91 236 -170
l61 -67 0 -253 c0 -139 -3 -255 -8 -258 -4 -2 -34 18 -67 45 -94 79 -207 156
-297 204 -157 83 -380 142 -581 152 -72 4 -110 10 -114 18 -2 7 3 30 11 50
l16 38 128 -6 c308 -13 610 -128 791 -301 l54 -51 -6 39 c-16 101 -268 276
-490 340 -125 36 -195 46 -334 46 -92 0 -123 3 -123 13 0 6 13 35 28 62 l28
50 89 -3 c206 -7 410 -64 588 -164 76 -43 177 -117 177 -130 0 -5 5 -8 10 -8
6 0 10 15 10 33 0 75 -208 223 -400 286 -105 34 -208 52 -327 58 -72 4 -113
10 -113 17 0 6 9 30 20 54 l19 42 75 0 c41 0 123 -9 181 -21z m1666 -26 c11
-25 18 -50 17 -55 -2 -5 -64 -11 -138 -13 -258 -8 -491 -97 -655 -250 -58 -53
-65 -65 -65 -98 l0 -37 71 59 c81 69 204 135 334 181 161 56 364 89 455 73 46
-8 64 -30 85 -100 l6 -23 -134 0 c-306 0 -578 -102 -753 -282 -59 -61 -78 -95
-68 -123 4 -9 18 0 42 27 152 168 535 308 843 308 l100 0 19 -42 c10 -23 16
-46 14 -50 -3 -4 -40 -8 -82 -8 -42 0 -131 -9 -197 -20 -288 -48 -492 -137
-677 -292 -86 -73 -128 -102 -136 -93 -4 4 -9 124 -10 267 l-4 260 34 35 c116
121 329 239 528 292 98 26 115 28 243 30 l108 1 20 -47z"/>
<path d="M2995 2055 c-160 -45 -200 -62 -200 -81 0 -17 7 -19 75 -18 123 1
231 49 204 91 -14 23 -22 24 -79 8z"/>
<path d="M3039 1206 c-2 -2 -65 -9 -139 -16 -74 -6 -182 -20 -240 -31 -371
-71 -618 -192 -837 -408 -39 -39 -78 -71 -86 -71 -9 0 -57 42 -109 93 -51 51
-127 115 -168 142 -242 157 -606 266 -924 277 l-89 3 -35 -48 c-27 -38 -32
-50 -22 -62 12 -15 82 -38 355 -116 99 -28 207 -62 240 -75 33 -13 78 -28 100
-34 23 -5 50 -19 62 -29 43 -40 122 -82 213 -112 146 -48 183 -70 230 -139 23
-34 53 -66 68 -71 15 -6 57 -9 95 -6 75 5 101 21 110 67 8 36 84 96 141 111
74 20 181 70 202 96 22 25 76 47 394 153 80 27 215 71 301 97 85 27 166 55
178 63 l23 16 -27 52 c-28 54 -29 55 -36 48z"/>
</g>
</svg>
